<svg width="68" height="64" viewBox="0 0 68 64" fill="none" xmlns="http://www.w3.org/2000/svg">
<path fill-rule="evenodd" clip-rule="evenodd" d="M26.888 24.5438V31.9989H23.8791V24.5438H26.888Z" fill="url(#paint0_linear)"/>
<path fill-rule="evenodd" clip-rule="evenodd" d="M26.888 56.5449V64H23.8791V56.5449H26.888Z" fill="url(#paint1_linear)"/>
<path fill-rule="evenodd" clip-rule="evenodd" d="M32.497 56.5449V64H29.4881V56.5449H32.497Z" fill="url(#paint2_linear)"/>
<path fill-rule="evenodd" clip-rule="evenodd" d="M38.1441 56.5449V64H35.1352V56.5449H38.1441Z" fill="url(#paint3_linear)"/>
<path fill-rule="evenodd" clip-rule="evenodd" d="M43.6745 56.5449V64H40.6657V56.5449H43.6745Z" fill="url(#paint4_linear)"/>
<path fill-rule="evenodd" clip-rule="evenodd" d="M32.5359 24.5438V31.9989H29.527V24.5438H32.5359Z" fill="url(#paint5_linear)"/>
<path fill-rule="evenodd" clip-rule="evenodd" d="M38.1441 24.5438V31.9989H35.1352V24.5438H38.1441Z" fill="url(#paint6_linear)"/>
<path fill-rule="evenodd" clip-rule="evenodd" d="M43.6745 24.5438V31.9989H40.6657V24.5438H43.6745Z" fill="url(#paint7_linear)"/>
<path fill-rule="evenodd" clip-rule="evenodd" d="M46.0742 34.34H53.4986V37.3613H46.0742V34.34Z" fill="url(#paint8_linear)"/>
<path fill-rule="evenodd" clip-rule="evenodd" d="M14.185 34.34H21.6094V37.3613H14.185V34.34Z" fill="url(#paint9_linear)"/>
<path fill-rule="evenodd" clip-rule="evenodd" d="M46.0742 39.9926H53.4986V43.0139H46.0742V39.9926Z" fill="url(#paint10_linear)"/>
<path fill-rule="evenodd" clip-rule="evenodd" d="M14.185 39.9926H21.6094V43.0139H14.185V39.9926Z" fill="url(#paint11_linear)"/>
<path fill-rule="evenodd" clip-rule="evenodd" d="M46.0742 45.6425H53.4986V48.6638H46.0742V45.6425Z" fill="url(#paint12_linear)"/>
<path fill-rule="evenodd" clip-rule="evenodd" d="M14.185 45.6425H21.6094V48.6638H14.185V45.6425Z" fill="url(#paint13_linear)"/>
<path fill-rule="evenodd" clip-rule="evenodd" d="M46.0742 51.1968H53.4986V54.2181H46.0742V51.1968Z" fill="url(#paint14_linear)"/>
<path fill-rule="evenodd" clip-rule="evenodd" d="M14.185 51.1968H21.6094V54.2181H14.185V51.1968Z" fill="url(#paint15_linear)"/>
<path fill-rule="evenodd" clip-rule="evenodd" d="M18.6322 28.9768H49.0489V59.5195H18.6322V28.9768ZM21.641 31.9981V56.4982H46.0401V31.9981H21.641Z" fill="url(#paint16_linear)"/>
<path fill-rule="evenodd" clip-rule="evenodd" d="M23.5178 33.9025H44.1209V54.591H23.5178V33.9025ZM26.5266 36.9238V51.5696H41.1121V36.9238H26.5266Z" fill="url(#paint17_linear)"/>
<path fill-rule="evenodd" clip-rule="evenodd" d="M37.1959 3.16773C34.4204 3.64106 31.5013 5.33382 29.1242 9.20015L28.4924 10.2279L27.3549 9.83515C18.5117 6.782 12.1489 13.6608 12.5655 20.1723L12.6589 21.632L11.209 21.7728C6.4651 22.2334 3.25832 26.7003 3.02229 31.3357C2.9069 33.6018 3.52711 35.7352 4.90184 37.2917C6.25568 38.8245 8.49173 39.9683 11.9595 39.9943L13.4639 40.0056L13.4415 43.0269L11.9371 43.0156C7.78005 42.9844 4.67057 41.5833 2.65074 39.2964C0.651791 37.0331 -0.129831 34.0719 0.0173515 31.1815C0.286019 25.9052 3.73868 20.2695 9.55198 18.9818C9.91741 11.3004 17.2873 3.91252 27.2064 6.6291C29.8995 2.74661 33.2658 0.773382 36.6921 0.189067C40.3455 -0.434003 43.9115 0.547332 46.6036 2.18806C51.9871 5.46926 54.2386 11.6053 52.4818 17.7898C56.7513 17.8545 60.1582 19.0467 62.6985 20.9676C65.6685 23.2133 67.3398 26.371 67.8389 29.5765C68.3355 32.7653 67.6808 36.064 65.92 38.6113C64.1334 41.1961 61.2452 42.9423 57.4963 42.9836L55.9919 43.0002L55.9589 39.979L57.4632 39.9625C60.2088 39.9322 62.2004 38.6939 63.4482 36.8886C64.7219 35.0459 65.2563 32.5487 64.8662 30.0433C64.4786 27.5545 63.1874 25.1194 60.8885 23.3811C58.5962 21.6478 55.1873 20.5228 50.4249 20.8715L47.9251 21.0546L48.9398 18.7533C51.4124 13.1458 49.666 7.58888 45.0424 4.77085C42.8626 3.44234 40.0223 2.68571 37.1959 3.16773Z" fill="url(#paint18_linear)"/>
<defs>
<linearGradient id="paint0_linear" x1="71.7437" y1="44.4891" x2="-2.52573" y2="13.2606" gradientUnits="userSpaceOnUse">
<stop offset="0.0851262" stop-color="#C5F46A"/>
<stop offset="0.434659" stop-color="#0B649C"/>
<stop offset="0.856776" stop-color="#4B00AD"/>
</linearGradient>
<linearGradient id="paint1_linear" x1="71.7437" y1="44.4891" x2="-2.52573" y2="13.2606" gradientUnits="userSpaceOnUse">
<stop offset="0.0851262" stop-color="#C5F46A"/>
<stop offset="0.434659" stop-color="#0B649C"/>
<stop offset="0.856776" stop-color="#4B00AD"/>
</linearGradient>
<linearGradient id="paint2_linear" x1="71.7437" y1="44.4891" x2="-2.52573" y2="13.2606" gradientUnits="userSpaceOnUse">
<stop offset="0.0851262" stop-color="#C5F46A"/>
<stop offset="0.434659" stop-color="#0B649C"/>
<stop offset="0.856776" stop-color="#4B00AD"/>
</linearGradient>
<linearGradient id="paint3_linear" x1="71.7437" y1="44.4891" x2="-2.52573" y2="13.2606" gradientUnits="userSpaceOnUse">
<stop offset="0.0851262" stop-color="#C5F46A"/>
<stop offset="0.434659" stop-color="#0B649C"/>
<stop offset="0.856776" stop-color="#4B00AD"/>
</linearGradient>
<linearGradient id="paint4_linear" x1="71.7437" y1="44.4891" x2="-2.52573" y2="13.2606" gradientUnits="userSpaceOnUse">
<stop offset="0.0851262" stop-color="#C5F46A"/>
<stop offset="0.434659" stop-color="#0B649C"/>
<stop offset="0.856776" stop-color="#4B00AD"/>
</linearGradient>
<linearGradient id="paint5_linear" x1="71.7437" y1="44.4891" x2="-2.52573" y2="13.2606" gradientUnits="userSpaceOnUse">
<stop offset="0.0851262" stop-color="#C5F46A"/>
<stop offset="0.434659" stop-color="#0B649C"/>
<stop offset="0.856776" stop-color="#4B00AD"/>
</linearGradient>
<linearGradient id="paint6_linear" x1="71.7437" y1="44.4891" x2="-2.52573" y2="13.2606" gradientUnits="userSpaceOnUse">
<stop offset="0.0851262" stop-color="#C5F46A"/>
<stop offset="0.434659" stop-color="#0B649C"/>
<stop offset="0.856776" stop-color="#4B00AD"/>
</linearGradient>
<linearGradient id="paint7_linear" x1="71.7437" y1="44.4891" x2="-2.52573" y2="13.2606" gradientUnits="userSpaceOnUse">
<stop offset="0.0851262" stop-color="#C5F46A"/>
<stop offset="0.434659" stop-color="#0B649C"/>
<stop offset="0.856776" stop-color="#4B00AD"/>
</linearGradient>
<linearGradient id="paint8_linear" x1="71.7437" y1="44.4891" x2="-2.52573" y2="13.2606" gradientUnits="userSpaceOnUse">
<stop offset="0.0851262" stop-color="#C5F46A"/>
<stop offset="0.434659" stop-color="#0B649C"/>
<stop offset="0.856776" stop-color="#4B00AD"/>
</linearGradient>
<linearGradient id="paint9_linear" x1="71.7437" y1="44.4891" x2="-2.52573" y2="13.2606" gradientUnits="userSpaceOnUse">
<stop offset="0.0851262" stop-color="#C5F46A"/>
<stop offset="0.434659" stop-color="#0B649C"/>
<stop offset="0.856776" stop-color="#4B00AD"/>
</linearGradient>
<linearGradient id="paint10_linear" x1="71.7437" y1="44.4891" x2="-2.52573" y2="13.2606" gradientUnits="userSpaceOnUse">
<stop offset="0.0851262" stop-color="#C5F46A"/>
<stop offset="0.434659" stop-color="#0B649C"/>
<stop offset="0.856776" stop-color="#4B00AD"/>
</linearGradient>
<linearGradient id="paint11_linear" x1="71.7437" y1="44.4891" x2="-2.52573" y2="13.2606" gradientUnits="userSpaceOnUse">
<stop offset="0.0851262" stop-color="#C5F46A"/>
<stop offset="0.434659" stop-color="#0B649C"/>
<stop offset="0.856776" stop-color="#4B00AD"/>
</linearGradient>
<linearGradient id="paint12_linear" x1="71.7437" y1="44.4891" x2="-2.52573" y2="13.2606" gradientUnits="userSpaceOnUse">
<stop offset="0.0851262" stop-color="#C5F46A"/>
<stop offset="0.434659" stop-color="#0B649C"/>
<stop offset="0.856776" stop-color="#4B00AD"/>
</linearGradient>
<linearGradient id="paint13_linear" x1="71.7437" y1="44.4891" x2="-2.52573" y2="13.2606" gradientUnits="userSpaceOnUse">
<stop offset="0.0851262" stop-color="#C5F46A"/>
<stop offset="0.434659" stop-color="#0B649C"/>
<stop offset="0.856776" stop-color="#4B00AD"/>
</linearGradient>
<linearGradient id="paint14_linear" x1="71.7437" y1="44.4891" x2="-2.52573" y2="13.2606" gradientUnits="userSpaceOnUse">
<stop offset="0.0851262" stop-color="#C5F46A"/>
<stop offset="0.434659" stop-color="#0B649C"/>
<stop offset="0.856776" stop-color="#4B00AD"/>
</linearGradient>
<linearGradient id="paint15_linear" x1="71.7437" y1="44.4891" x2="-2.52573" y2="13.2606" gradientUnits="userSpaceOnUse">
<stop offset="0.0851262" stop-color="#C5F46A"/>
<stop offset="0.434659" stop-color="#0B649C"/>
<stop offset="0.856776" stop-color="#4B00AD"/>
</linearGradient>
<linearGradient id="paint16_linear" x1="71.7437" y1="44.4891" x2="-2.52573" y2="13.2606" gradientUnits="userSpaceOnUse">
<stop offset="0.0851262" stop-color="#C5F46A"/>
<stop offset="0.434659" stop-color="#0B649C"/>
<stop offset="0.856776" stop-color="#4B00AD"/>
</linearGradient>
<linearGradient id="paint17_linear" x1="71.7437" y1="44.4891" x2="-2.52573" y2="13.2606" gradientUnits="userSpaceOnUse">
<stop offset="0.0851262" stop-color="#C5F46A"/>
<stop offset="0.434659" stop-color="#0B649C"/>
<stop offset="0.856776" stop-color="#4B00AD"/>
</linearGradient>
<linearGradient id="paint18_linear" x1="71.7437" y1="44.4891" x2="-2.52573" y2="13.2606" gradientUnits="userSpaceOnUse">
<stop offset="0.0851262" stop-color="#C5F46A"/>
<stop offset="0.434659" stop-color="#0B649C"/>
<stop offset="0.856776" stop-color="#4B00AD"/>
</linearGradient>
</defs>
</svg>
