<?xml version="1.0" encoding="UTF-8" standalone="no"?><!DOCTYPE svg PUBLIC "-//W3C//DTD SVG 1.1//EN" "http://www.w3.org/Graphics/SVG/1.1/DTD/svg11.dtd"><svg width="100%" height="100%" viewBox="0 0 109 109" version="1.1" xmlns="http://www.w3.org/2000/svg" xmlns:xlink="http://www.w3.org/1999/xlink" xml:space="preserve" xmlns:serif="http://www.serif.com/" style="fill-rule:evenodd;clip-rule:evenodd;stroke-linejoin:round;stroke-miterlimit:1.41421;"><rect id="instagram" x="0" y="0" width="108.017" height="108.017" style="fill:none;"/><g><path d="M72.404,4.954l-36.791,0c-16.93,0 -30.659,13.729 -30.659,30.659l0,36.791c0,16.93 13.729,30.659 30.659,30.659l36.791,0c16.93,0 30.659,-13.729 30.659,-30.659l0,-36.791c0,-16.93 -13.729,-30.659 -30.659,-30.659Zm21.461,67.45c0,11.834 -9.627,21.461 -21.461,21.461l-36.791,0c-11.834,0 -21.461,-9.627 -21.461,-21.461l0,-36.791c0,-11.834 9.627,-21.461 21.461,-21.461l36.791,0c11.834,0 21.461,9.627 21.461,21.461l0,36.791Z" style="fill:#fff;fill-rule:nonzero;"/><path d="M54.008,29.481c-13.545,0 -24.527,10.982 -24.527,24.527c0,13.546 10.982,24.528 24.527,24.528c13.546,0 24.528,-10.982 24.528,-24.528c0,-13.545 -10.982,-24.527 -24.528,-24.527Zm0,39.857c-8.449,0 -15.329,-6.88 -15.329,-15.33c0,-8.455 6.88,-15.329 15.329,-15.329c8.45,0 15.33,6.874 15.33,15.329c0,8.45 -6.88,15.33 -15.33,15.33Z" style="fill:#fff;fill-rule:nonzero;"/><circle cx="80.375" cy="27.642" r="3.268" style="fill:#fff;"/></g></svg>