<?xml version="1.0" encoding="UTF-8" standalone="no"?><!DOCTYPE svg PUBLIC "-//W3C//DTD SVG 1.1//EN" "http://www.w3.org/Graphics/SVG/1.1/DTD/svg11.dtd"><svg width="100%" height="100%" viewBox="0 0 109 109" version="1.1" xmlns="http://www.w3.org/2000/svg" xmlns:xlink="http://www.w3.org/1999/xlink" xml:space="preserve" xmlns:serif="http://www.serif.com/" style="fill-rule:evenodd;clip-rule:evenodd;stroke-linejoin:round;stroke-miterlimit:1.41421;"><rect id="linkedid" x="0" y="0" width="108.017" height="108.017" style="fill:none;"/><path d="M94.188,4.954l-80.359,0c-4.902,0 -8.875,3.973 -8.875,8.875l0,80.359c0,4.902 3.973,8.875 8.875,8.875l80.359,0c4.902,0 8.875,-3.973 8.875,-8.875l0,-80.359c0,-4.902 -3.973,-8.875 -8.875,-8.875Zm-58.875,84.714c0,1.426 -1.156,2.582 -2.583,2.582l-10.994,0c-1.426,0 -2.582,-1.156 -2.582,-2.582l0,-46.086c0,-1.427 1.156,-2.583 2.582,-2.583l10.994,0c1.427,0 2.583,1.156 2.583,2.583l0,46.086Zm-8.08,-53.013c-5.768,0 -10.444,-4.676 -10.444,-10.444c0,-5.768 4.676,-10.445 10.444,-10.445c5.769,0 10.445,4.677 10.445,10.445c0,5.768 -4.676,10.444 -10.445,10.444Zm65.534,53.221c0,1.311 -1.064,2.374 -2.375,2.374l-11.797,0c-1.312,0 -2.375,-1.063 -2.375,-2.374l0,-21.617c0,-3.225 0.946,-14.131 -8.427,-14.131c-7.271,0 -8.746,7.465 -9.042,10.815l0,24.933c0,1.311 -1.063,2.374 -2.374,2.374l-11.41,0c-1.312,0 -2.375,-1.063 -2.375,-2.374l0,-46.502c0,-1.312 1.063,-2.375 2.375,-2.375l11.41,0c1.311,0 2.374,1.063 2.374,2.375l0,4.021c2.696,-4.046 6.703,-7.169 15.233,-7.169c18.891,0 18.783,17.648 18.783,27.345l0,22.305Z" style="fill:#fff;fill-rule:nonzero;"/></svg>