<svg width="68" height="53" viewBox="0 0 68 53" fill="none" xmlns="http://www.w3.org/2000/svg">
<path fill-rule="evenodd" clip-rule="evenodd" d="M46.8798 0.256449C47.2838 0.531657 47.5255 0.988846 47.5255 1.47767V38.8083C47.5255 39.3096 47.2714 39.7766 46.8506 40.0489C46.4298 40.3212 45.8997 40.3616 45.4425 40.1563L45.4308 40.151L45.3921 40.1338L45.2361 40.0646C45.098 40.0037 44.8929 39.9137 44.6277 39.7989C44.0971 39.5693 43.326 39.2403 42.3686 38.8451C40.4528 38.0544 37.7962 37.0006 34.8317 35.9478C28.8319 33.8169 21.8125 31.78 17.0841 31.78C11.9923 31.78 7.75913 31.0936 4.75998 29.2927C1.61955 27.4071 0 24.4029 0 20.3265C0 16.299 1.45663 13.2778 4.55431 11.353C7.49833 9.52368 11.7434 8.80659 17.0676 8.74721C21.8738 8.69431 26.7703 7.41988 31.6021 5.69627C34.634 4.6147 37.5391 3.39755 40.3715 2.21084C42.1064 1.48395 43.8141 0.768477 45.507 0.102566C45.9619 -0.0763686 46.4758 -0.0187592 46.8798 0.256449ZM44.5702 36.5612V3.66589C43.6213 4.05535 42.6461 4.46353 41.6509 4.88007C38.7487 6.09475 35.6768 7.38046 32.595 8.47979C27.6334 10.2497 22.3812 11.6442 17.1004 11.7023C11.9002 11.7604 8.34213 12.4787 6.11408 13.8632C4.03966 15.1522 2.95532 17.1232 2.95532 20.3265C2.95532 23.4807 4.12534 25.4645 6.28132 26.7591C8.57856 28.1385 12.1486 28.8247 17.0841 28.8247C22.3831 28.8247 29.8455 31.0407 35.8208 33.1629C38.8438 34.2365 41.548 35.3093 43.4962 36.1134C43.8853 36.274 44.2445 36.424 44.5702 36.5612Z" fill="url(#paint0_linear)"/>
<path fill-rule="evenodd" clip-rule="evenodd" d="M18.5848 9.44365V30.8544H15.6294V9.44365H18.5848Z" fill="url(#paint1_linear)"/>
<path fill-rule="evenodd" clip-rule="evenodd" d="M45.4515 12.3021L46.9077 12.5526L46.6572 14.0089C46.9077 12.5526 46.9091 12.5529 46.9091 12.5529L46.9105 12.5531L46.9139 12.5537L46.9223 12.5552L46.9457 12.5595C46.9641 12.5629 46.9882 12.5676 47.0176 12.5735C47.0764 12.5854 47.1566 12.6026 47.2551 12.626C47.4518 12.6728 47.7237 12.7447 48.0461 12.8494C48.6859 13.0573 49.5514 13.4031 50.4287 13.9564C52.209 15.0793 54.1013 17.1184 54.1013 20.509C54.1013 24.0271 52.281 26.0713 50.4707 27.1661C49.5929 27.6969 48.7279 28.0029 48.0895 28.1772C47.7676 28.2651 47.4958 28.3216 47.2986 28.3567C47.1998 28.3744 47.1191 28.3868 47.0595 28.3951C47.0297 28.3993 47.0051 28.4025 46.9861 28.4048L46.9618 28.4077L46.9528 28.4088L46.9492 28.4092L46.9476 28.4093C46.9476 28.4093 46.9461 28.4095 46.7888 26.9434L46.9461 28.4095L45.4769 28.5671L45.1616 25.6287L46.6244 25.4717L46.6485 25.4685C46.6744 25.4649 46.719 25.4582 46.7798 25.4473C46.9017 25.4256 47.0858 25.3878 47.3109 25.3263C47.7667 25.2018 48.3604 24.9885 48.9414 24.6372C50.0487 23.9676 51.146 22.7962 51.146 20.509C51.146 18.4257 50.0551 17.2148 48.8522 16.4561C48.2379 16.0687 47.6118 15.8157 47.1329 15.6601C46.8959 15.5831 46.7017 15.5321 46.5721 15.5013C46.5075 15.486 46.4594 15.4758 46.4308 15.47L46.403 15.4645L44.9505 15.2147L45.4515 12.3021Z" fill="url(#paint2_linear)"/>
<path fill-rule="evenodd" clip-rule="evenodd" d="M49.4506 7.90222L50.8881 8.24462C54.759 9.16666 57.2003 11.3007 58.6442 13.7183C60.0618 16.0919 60.4827 18.6721 60.4833 20.5383C60.4839 22.3706 60.0714 25.0599 58.6555 27.505C57.2086 30.0037 54.729 32.2073 50.7552 32.9286L49.3013 33.1926L48.7735 30.2848L50.2274 30.0208C53.2614 29.4701 55.0394 27.8522 56.098 26.0241C57.1876 24.1424 57.5285 21.9998 57.528 20.5392C57.5275 19.0618 57.1855 17.0395 56.107 15.2336C55.0547 13.4717 53.2666 11.8492 50.2033 11.1195L48.7659 10.7771L49.4506 7.90222Z" fill="url(#paint3_linear)"/>
<path fill-rule="evenodd" clip-rule="evenodd" d="M53.0327 3.14621L54.4665 3.50323C64.9635 6.11686 67.2021 15.4376 67.2032 20.5213C67.2038 23.0607 66.6545 26.7926 64.7814 30.1741C62.8795 33.6076 59.6121 36.6647 54.3104 37.671L52.8586 37.9465L52.3076 35.043L53.7593 34.7675C58.0795 33.9476 60.6579 31.5193 62.1962 28.7421C63.7632 25.9131 64.2484 22.7092 64.2479 20.5219C64.2469 16.0084 62.2987 8.49891 53.7525 6.371L52.3186 6.01397L53.0327 3.14621Z" fill="url(#paint4_linear)"/>
<path fill-rule="evenodd" clip-rule="evenodd" d="M9.17968 28.1691L16.7366 49.8195C16.793 49.8073 16.8509 49.7947 16.9102 49.7816C17.7669 49.593 18.9009 49.3196 20.0326 48.9774C21.1799 48.6306 22.2546 48.2337 23.0284 47.8146C23.2745 47.6813 23.4642 47.5594 23.6051 47.4534C22.6454 45.6247 21.683 43.0556 20.9744 40.3496C20.1577 37.2311 19.6307 33.7525 19.9082 30.8515L20.0489 29.3806L22.9908 29.662L22.8501 31.133C22.6197 33.5414 23.0572 36.6374 23.8333 39.601C24.6086 42.5616 25.6743 45.2118 26.5799 46.7203C26.7408 46.9883 26.8126 47.3005 26.7849 47.6118C26.7155 48.3912 26.2884 48.9835 25.8819 49.3861C25.4679 49.7959 24.952 50.1336 24.4359 50.4132C23.3998 50.9744 22.101 51.4395 20.8879 51.8063C19.6591 52.1778 18.446 52.4696 17.5456 52.6678C17.0939 52.7673 16.7173 52.844 16.4523 52.896C16.3197 52.9221 16.2149 52.942 16.1423 52.9556L16.0582 52.9711L16.0353 52.9753L16.0268 52.9768C16.0268 52.9768 16.0257 52.977 15.7659 51.5224L16.0268 52.9768C15.3124 53.1044 14.6099 52.6945 14.3707 52.0093L6.38945 29.143L9.17968 28.1691Z" fill="url(#paint5_linear)"/>
<defs>
<linearGradient id="paint0_linear" x1="70.903" y1="36.8425" x2="1.90138" y2="2.21785" gradientUnits="userSpaceOnUse">
<stop offset="0.0851262" stop-color="#C5F46A"/>
<stop offset="0.434659" stop-color="#0B649C"/>
<stop offset="0.856776" stop-color="#4B00AD"/>
</linearGradient>
<linearGradient id="paint1_linear" x1="70.903" y1="36.8425" x2="1.90138" y2="2.21785" gradientUnits="userSpaceOnUse">
<stop offset="0.0851262" stop-color="#C5F46A"/>
<stop offset="0.434659" stop-color="#0B649C"/>
<stop offset="0.856776" stop-color="#4B00AD"/>
</linearGradient>
<linearGradient id="paint2_linear" x1="70.903" y1="36.8425" x2="1.90138" y2="2.21785" gradientUnits="userSpaceOnUse">
<stop offset="0.0851262" stop-color="#C5F46A"/>
<stop offset="0.434659" stop-color="#0B649C"/>
<stop offset="0.856776" stop-color="#4B00AD"/>
</linearGradient>
<linearGradient id="paint3_linear" x1="70.903" y1="36.8425" x2="1.90138" y2="2.21785" gradientUnits="userSpaceOnUse">
<stop offset="0.0851262" stop-color="#C5F46A"/>
<stop offset="0.434659" stop-color="#0B649C"/>
<stop offset="0.856776" stop-color="#4B00AD"/>
</linearGradient>
<linearGradient id="paint4_linear" x1="70.903" y1="36.8425" x2="1.90138" y2="2.21785" gradientUnits="userSpaceOnUse">
<stop offset="0.0851262" stop-color="#C5F46A"/>
<stop offset="0.434659" stop-color="#0B649C"/>
<stop offset="0.856776" stop-color="#4B00AD"/>
</linearGradient>
<linearGradient id="paint5_linear" x1="70.903" y1="36.8425" x2="1.90138" y2="2.21785" gradientUnits="userSpaceOnUse">
<stop offset="0.0851262" stop-color="#C5F46A"/>
<stop offset="0.434659" stop-color="#0B649C"/>
<stop offset="0.856776" stop-color="#4B00AD"/>
</linearGradient>
</defs>
</svg>
