<svg width="51" height="63" viewBox="0 0 51 63" fill="none" xmlns="http://www.w3.org/2000/svg">
<path fill-rule="evenodd" clip-rule="evenodd" d="M43.9777 10.2601C32.67 -0.490034 15.8435 0.0942288 4.93639 11.8121L4.05997 12.7537L2.20573 10.9735L3.08215 10.032C14.9302 -2.6968 33.3634 -3.38037 45.7215 8.36832L46.6529 9.25378L44.9091 11.1456L43.9777 10.2601Z" fill="url(#paint0_linear)"/>
<path fill-rule="evenodd" clip-rule="evenodd" d="M37.3408 37.473L36.9622 38.7103C36.1488 41.3684 36.7247 43.983 38.0619 46.3627C39.4068 48.7559 41.4795 50.8232 43.4554 52.2563L44.4937 53.0093L43.0108 55.1182L41.9725 54.3652C39.7759 52.772 37.4164 50.4421 35.8458 47.6471C34.2676 44.8386 33.4446 41.4738 34.5255 37.9413L34.9041 36.704L37.3408 37.473Z" fill="url(#paint1_linear)"/>
<path fill-rule="evenodd" clip-rule="evenodd" d="M15.9422 36.4003L15.1531 37.4185C11.5894 42.0172 4.70386 46.6937 2.42432 48.1194L1.338 48.7988L0 46.5923L1.08632 45.9129C3.35948 44.4912 9.89096 40.0189 13.148 35.8159L13.9371 34.7977L15.9422 36.4003Z" fill="url(#paint2_linear)"/>
<path fill-rule="evenodd" clip-rule="evenodd" d="M32.349 43.9603L31.9182 45.1799C31.034 47.6835 30.8593 49.8755 31.5001 51.7892C32.136 53.6885 33.6484 55.5311 36.576 57.1949L37.6893 57.8276L36.4433 60.089L35.3299 59.4563C32.027 57.5791 29.9796 55.2971 29.0844 52.6235C28.194 49.9643 28.5169 47.1352 29.5165 44.3049L29.9472 43.0853L32.349 43.9603Z" fill="url(#paint3_linear)"/>
<path fill-rule="evenodd" clip-rule="evenodd" d="M21.0231 56.7378C19.873 57.4043 18.5316 58.5219 16.9997 60.1443L16.1166 61.0795L14.275 59.2859L15.158 58.3507C16.7794 56.6336 18.3139 55.3242 19.7587 54.487C21.1984 53.6528 22.662 53.2239 24.0763 53.4708C25.5268 53.7239 26.6734 54.642 27.5403 55.9701C28.3926 57.2759 29.0216 59.0407 29.478 61.1863L29.7475 62.4528L27.2534 63L26.984 61.7335C26.5608 59.7441 26.0193 58.3299 25.4136 57.4019C24.8224 56.4962 24.2234 56.1258 23.6442 56.0247C23.0287 55.9173 22.1783 56.0685 21.0231 56.7378Z" fill="url(#paint4_linear)"/>
<path fill-rule="evenodd" clip-rule="evenodd" d="M24.3689 8.94783C16.5314 9.30135 8.63929 13.8007 3.21273 23.0414L2.55924 24.1542L0.367789 22.8269L1.02127 21.7141C6.83945 11.8065 15.4709 6.75529 24.2557 6.35904C33.0273 5.96338 41.7807 10.2179 47.8308 18.5634L48.5872 19.6068L46.5325 21.1432L45.776 20.0998C40.187 12.3903 32.2194 8.59372 24.3689 8.94783Z" fill="url(#paint5_linear)"/>
<path fill-rule="evenodd" clip-rule="evenodd" d="M44.1766 33.4135L43.8509 34.6662C43.8105 34.8216 43.7702 34.9754 43.7304 35.1277C43.1537 37.3323 42.658 39.2275 42.8759 41.1871C43.0974 43.1784 44.0914 45.3899 47.0506 47.9601L48.0202 48.8022L46.3618 50.7716L45.3922 49.9295C42.0621 47.0371 40.6505 44.2651 40.3405 41.478C40.0659 39.0096 40.6869 36.6524 41.2411 34.5487C41.2894 34.3653 41.3372 34.1839 41.3838 34.0046L41.7096 32.7518L44.1766 33.4135Z" fill="url(#paint6_linear)"/>
<path fill-rule="evenodd" clip-rule="evenodd" d="M13.2802 29.4106L12.5247 30.4546C9.77486 34.2546 6.80487 37.4277 2.78419 39.9314L1.69657 40.6087L0.362805 38.3995L1.45043 37.7222C5.10341 35.4475 7.84386 32.5472 10.4687 28.92L11.2242 27.876L13.2802 29.4106Z" fill="url(#paint7_linear)"/>
<path fill-rule="evenodd" clip-rule="evenodd" d="M30.8958 22.2282C25.1115 18.9041 17.8792 21.3584 14.8937 26.6622L14.2605 27.787L12.0453 26.5009L12.6785 25.3761C16.3222 18.9032 25.0779 15.9074 32.1524 19.9728C34.476 21.3084 36.1859 23.124 37.2025 25.4328C38.213 27.7274 38.4962 30.4117 38.1397 33.429L37.9877 34.7155L35.4543 34.4067L35.6063 33.1203C35.9234 30.4365 35.6478 28.2498 34.8732 26.4906C34.1049 24.7457 32.8034 23.3246 30.8958 22.2282Z" fill="url(#paint8_linear)"/>
<path fill-rule="evenodd" clip-rule="evenodd" d="M23.1265 27.7749C21.3584 28.8231 19.5548 30.8263 17.8484 33.591L17.1708 34.6888L15.0089 33.3125L15.6865 32.2146C17.4924 29.2887 19.5623 26.8874 21.8401 25.537C24.1865 24.1459 26.7749 23.8721 29.3286 25.2897C30.8582 26.1388 31.908 27.308 32.4594 28.7451C33.0023 30.1602 33.0153 31.7126 32.7011 33.2708C32.0801 36.3502 30.1186 39.7603 27.6581 42.9898C22.7282 49.4603 15.325 55.8026 10.6474 58.1425L9.50286 58.715L8.37541 56.3903L9.51991 55.8178C13.7633 53.6952 20.8813 47.6499 25.6401 41.404C28.0239 38.2751 29.6985 35.2447 30.2014 32.7509C30.4491 31.5224 30.3961 30.5051 30.0819 29.6858C29.776 28.8886 29.1776 28.159 28.1048 27.5635C26.456 26.6483 24.826 26.7673 23.1265 27.7749Z" fill="url(#paint9_linear)"/>
<path fill-rule="evenodd" clip-rule="evenodd" d="M27.2622 31.7326L26.5666 32.8187C21.429 40.8402 14.1986 48.04 4.79448 54.3898L3.73206 55.1072L2.31936 52.9492L3.38178 52.2319C12.5469 46.0435 19.5101 39.0837 24.4277 31.4058L25.1233 30.3197L27.2622 31.7326Z" fill="url(#paint10_linear)"/>
<path fill-rule="evenodd" clip-rule="evenodd" d="M49.4215 21.9765L49.81 23.2106C52.1754 30.7259 50.5844 37.2278 48.7588 43.1085L48.3752 44.3442L45.9417 43.565L46.3253 42.3293C48.1212 36.5442 49.4906 30.7068 47.3795 23.9996L46.9911 22.7655L49.4215 21.9765Z" fill="url(#paint11_linear)"/>
<path fill-rule="evenodd" clip-rule="evenodd" d="M32.3951 15.9798C28.5067 14.2648 23.273 14.3731 19.9312 15.3111C16.0358 16.4042 13.5127 19.2716 11.1245 22.5646C10.7491 23.0823 10.371 23.6191 9.98996 24.1602C9.19563 25.2882 8.38815 26.4348 7.56386 27.4654C6.32498 29.0145 4.93563 30.4543 3.23148 31.4399L2.12284 32.0811L0.860167 29.8292L1.9688 29.1881C3.27437 28.433 4.42853 27.2755 5.58326 25.8317C6.35954 24.8611 7.08638 23.8284 7.85181 22.7409C8.24382 22.1839 8.64595 21.6126 9.07004 21.0279C11.5021 17.6744 14.465 14.1566 19.2515 12.8134C23.0127 11.7576 28.8662 11.5981 33.4116 13.6029C38.7486 15.9563 42.4401 20.8739 44.0549 25.435L44.4866 26.6543L42.0855 27.5311L41.6538 26.3118C40.2281 22.2847 36.9647 17.9948 32.3951 15.9798Z" fill="url(#paint12_linear)"/>
<defs>
<linearGradient id="paint0_linear" x1="53.8078" y1="43.7939" x2="-5.64106" y2="24.7488" gradientUnits="userSpaceOnUse">
<stop offset="0.0851262" stop-color="#C5F46A"/>
<stop offset="0.434659" stop-color="#0B649C"/>
<stop offset="0.856776" stop-color="#4B00AD"/>
</linearGradient>
<linearGradient id="paint1_linear" x1="53.8078" y1="43.7939" x2="-5.64106" y2="24.7488" gradientUnits="userSpaceOnUse">
<stop offset="0.0851262" stop-color="#C5F46A"/>
<stop offset="0.434659" stop-color="#0B649C"/>
<stop offset="0.856776" stop-color="#4B00AD"/>
</linearGradient>
<linearGradient id="paint2_linear" x1="53.8078" y1="43.7939" x2="-5.64106" y2="24.7488" gradientUnits="userSpaceOnUse">
<stop offset="0.0851262" stop-color="#C5F46A"/>
<stop offset="0.434659" stop-color="#0B649C"/>
<stop offset="0.856776" stop-color="#4B00AD"/>
</linearGradient>
<linearGradient id="paint3_linear" x1="53.8078" y1="43.7939" x2="-5.64106" y2="24.7488" gradientUnits="userSpaceOnUse">
<stop offset="0.0851262" stop-color="#C5F46A"/>
<stop offset="0.434659" stop-color="#0B649C"/>
<stop offset="0.856776" stop-color="#4B00AD"/>
</linearGradient>
<linearGradient id="paint4_linear" x1="53.8078" y1="43.7939" x2="-5.64106" y2="24.7488" gradientUnits="userSpaceOnUse">
<stop offset="0.0851262" stop-color="#C5F46A"/>
<stop offset="0.434659" stop-color="#0B649C"/>
<stop offset="0.856776" stop-color="#4B00AD"/>
</linearGradient>
<linearGradient id="paint5_linear" x1="53.8078" y1="43.7939" x2="-5.64106" y2="24.7488" gradientUnits="userSpaceOnUse">
<stop offset="0.0851262" stop-color="#C5F46A"/>
<stop offset="0.434659" stop-color="#0B649C"/>
<stop offset="0.856776" stop-color="#4B00AD"/>
</linearGradient>
<linearGradient id="paint6_linear" x1="53.8078" y1="43.7939" x2="-5.64106" y2="24.7488" gradientUnits="userSpaceOnUse">
<stop offset="0.0851262" stop-color="#C5F46A"/>
<stop offset="0.434659" stop-color="#0B649C"/>
<stop offset="0.856776" stop-color="#4B00AD"/>
</linearGradient>
<linearGradient id="paint7_linear" x1="53.8078" y1="43.7939" x2="-5.64106" y2="24.7488" gradientUnits="userSpaceOnUse">
<stop offset="0.0851262" stop-color="#C5F46A"/>
<stop offset="0.434659" stop-color="#0B649C"/>
<stop offset="0.856776" stop-color="#4B00AD"/>
</linearGradient>
<linearGradient id="paint8_linear" x1="53.8078" y1="43.7939" x2="-5.64106" y2="24.7488" gradientUnits="userSpaceOnUse">
<stop offset="0.0851262" stop-color="#C5F46A"/>
<stop offset="0.434659" stop-color="#0B649C"/>
<stop offset="0.856776" stop-color="#4B00AD"/>
</linearGradient>
<linearGradient id="paint9_linear" x1="53.8078" y1="43.7939" x2="-5.64106" y2="24.7488" gradientUnits="userSpaceOnUse">
<stop offset="0.0851262" stop-color="#C5F46A"/>
<stop offset="0.434659" stop-color="#0B649C"/>
<stop offset="0.856776" stop-color="#4B00AD"/>
</linearGradient>
<linearGradient id="paint10_linear" x1="53.8078" y1="43.7939" x2="-5.64106" y2="24.7488" gradientUnits="userSpaceOnUse">
<stop offset="0.0851262" stop-color="#C5F46A"/>
<stop offset="0.434659" stop-color="#0B649C"/>
<stop offset="0.856776" stop-color="#4B00AD"/>
</linearGradient>
<linearGradient id="paint11_linear" x1="53.8078" y1="43.7939" x2="-5.64106" y2="24.7488" gradientUnits="userSpaceOnUse">
<stop offset="0.0851262" stop-color="#C5F46A"/>
<stop offset="0.434659" stop-color="#0B649C"/>
<stop offset="0.856776" stop-color="#4B00AD"/>
</linearGradient>
<linearGradient id="paint12_linear" x1="53.8078" y1="43.7939" x2="-5.64106" y2="24.7488" gradientUnits="userSpaceOnUse">
<stop offset="0.0851262" stop-color="#C5F46A"/>
<stop offset="0.434659" stop-color="#0B649C"/>
<stop offset="0.856776" stop-color="#4B00AD"/>
</linearGradient>
</defs>
</svg>
