<svg width="62" height="50" viewBox="0 0 62 50" fill="none" xmlns="http://www.w3.org/2000/svg">
<path fill-rule="evenodd" clip-rule="evenodd" d="M38.1887 0.914775C38.3738 0.907785 38.557 0.954905 38.7157 1.05037L52.1677 9.14037C52.3097 9.2258 52.427 9.34682 52.508 9.49146L59.4039 21.8107C59.4586 21.9083 59.4956 22.0148 59.5133 22.1253L60.7733 29.9871C60.8069 30.1971 60.7694 30.4122 60.6666 30.5984L57.0232 37.1966C56.9059 37.4092 56.7118 37.5689 56.4807 37.6431L44.0284 41.6448L46.5852 47.3132C46.7456 47.6689 46.6729 48.0865 46.4016 48.3671C46.1304 48.6477 45.7155 48.7344 45.3545 48.5861L35.1113 44.3756C35.04 44.3463 34.9726 44.3085 34.9104 44.2629L25.8399 37.6168L22.5815 40.3925L21.9637 39.6673L21.7332 40.5916L14.6034 38.8135L14.599 38.8124L5.12271 36.4968C4.8228 36.4236 4.577 36.2095 4.46322 35.9225L0.594592 26.1649C0.520744 25.9786 0.507501 25.7738 0.556747 25.5796L2.98099 16.0186C3.02108 15.8605 3.10108 15.7154 3.21334 15.597L9.3198 9.1608C9.4002 9.07606 9.4955 9.00682 9.60094 8.95655L25.2828 1.48004C25.3999 1.42421 25.5272 1.39288 25.6568 1.38798L38.1887 0.914775ZM21.7189 38.6243L25.1776 35.6779C25.5137 35.3917 26.0024 35.3738 26.3585 35.6347L35.943 42.6574L43.8633 45.913L41.8528 41.4559C41.7413 41.2085 41.7405 40.9254 41.8506 40.6774C41.9608 40.4294 42.1715 40.2402 42.4298 40.1571L55.5379 35.9447L58.8399 29.9646L57.6587 22.5938L50.9689 10.6429L37.977 2.82954L25.9252 3.28462L10.5805 10.6004L4.76682 16.728L2.47947 25.7492L6.0531 34.7627L15.0601 36.9636L21.7189 38.6243Z" fill="url(#paint0_linear)"/>
<path fill-rule="evenodd" clip-rule="evenodd" d="M39.625 32.3986L36.4088 44.0043L34.5726 43.4954L37.7888 31.8897L39.625 32.3986Z" fill="url(#paint1_linear)"/>
<path d="M45.2515 49.3312C46.4374 49.3312 47.3987 48.3532 47.3987 47.1469C47.3987 45.9405 46.4374 44.9626 45.2515 44.9626C44.0657 44.9626 43.1044 45.9405 43.1044 47.1469C43.1044 48.3532 44.0657 49.3312 45.2515 49.3312Z" fill="url(#paint2_linear)"/>
<path fill-rule="evenodd" clip-rule="evenodd" d="M10.3615 8.89698L23.4127 16.3884C23.6434 16.5208 23.8082 16.7436 23.8673 17.0029C23.9264 17.2622 23.8744 17.5344 23.7239 17.7537L15.1344 30.2706C15.0593 30.38 14.9622 30.4725 14.8493 30.5422L5.56965 36.2696L4.56888 34.6482L13.6772 29.0265L21.5687 17.5269L9.41298 10.5495L10.3615 8.89698Z" fill="url(#paint3_linear)"/>
<path fill-rule="evenodd" clip-rule="evenodd" d="M40.3497 20.3555L13.8771 30.9684L13.1681 29.1998L39.6407 18.587L40.3497 20.3555Z" fill="url(#paint4_linear)"/>
<path fill-rule="evenodd" clip-rule="evenodd" d="M52.5695 10.3833L39.6992 20.1086C39.4995 20.2596 39.2484 20.3258 39.0002 20.2931L22.8579 18.1634L3.97271 16.9609L4.09379 15.0593L23.0111 16.2639C23.0325 16.2652 23.0539 16.2673 23.0752 16.2701L38.8621 18.3529L51.4208 8.86305L52.5695 10.3833Z" fill="url(#paint5_linear)"/>
<path fill-rule="evenodd" clip-rule="evenodd" d="M39.3692 2.63844L32.5873 10.1935L40.0549 18.489L57.8671 21.4504C58.2802 21.5191 58.6001 21.8496 58.6552 22.2647C58.7104 22.6799 58.4879 23.0825 58.107 23.2566L48.0133 27.8721C47.6598 28.0338 47.2436 27.9645 46.9615 27.697L39.1259 20.2661L38.4738 20.1577L38.5548 19.6705L30.5982 10.8318C30.2724 10.4699 30.272 9.92045 30.5973 9.55803L37.9512 1.36563L39.3692 2.63844ZM42.4836 20.8243L47.8059 25.8718L54.4818 22.8191L42.4836 20.8243Z" fill="url(#paint6_linear)"/>
<path fill-rule="evenodd" clip-rule="evenodd" d="M32.6419 10.0621L22.8377 18.5572L21.5899 17.1171L31.3942 8.62208L32.6419 10.0621Z" fill="url(#paint7_linear)"/>
<path fill-rule="evenodd" clip-rule="evenodd" d="M25.9224 1.51865L32.4903 9.68572L31.0055 10.8798L24.4376 2.71275L25.9224 1.51865Z" fill="url(#paint8_linear)"/>
<path fill-rule="evenodd" clip-rule="evenodd" d="M5.16308 15.561L15.1642 29.1665C15.4096 29.5003 15.4111 29.9545 15.1679 30.29C14.9247 30.6254 14.4926 30.7652 14.099 30.6358L0.939142 26.3096L1.53421 24.4995L11.8653 27.8958L3.62782 16.6895L5.16308 15.561Z" fill="url(#paint9_linear)"/>
<path fill-rule="evenodd" clip-rule="evenodd" d="M36.393 32.5653L24.3535 20.0595L26.7171 34.8592L36.393 32.5653ZM37.974 34.1487L26.158 36.95C25.9001 37.0111 25.6285 36.9621 25.4083 36.8147C25.1881 36.6673 25.0392 36.4349 24.9974 36.1732L21.993 17.3614L22.9338 17.2112L23.6201 16.5504L38.5716 32.0809L47.3132 26.2143C47.7066 25.9503 48.2342 26.0154 48.5515 26.3672L57.0364 35.7731C57.3101 36.0765 57.3598 36.5207 57.16 36.8772C56.9601 37.2336 56.5552 37.4229 56.1535 37.3476L38.9464 34.1236C38.6461 34.3126 38.2725 34.3156 37.974 34.1487ZM41.2051 32.6082L53.7327 34.9555L47.6896 28.2564L41.2051 32.6082Z" fill="url(#paint10_linear)"/>
<path fill-rule="evenodd" clip-rule="evenodd" d="M13.9628 28.4325L27.5839 36.0453L26.6542 37.7086L13.0332 30.0958L13.9628 28.4325Z" fill="url(#paint11_linear)"/>
<path fill-rule="evenodd" clip-rule="evenodd" d="M38.7943 31.8513L44.0838 41.2377L42.4238 42.1732L37.1343 32.7867L38.7943 31.8513Z" fill="url(#paint12_linear)"/>
<path d="M43.1098 43.3641C44.2956 43.3641 45.2569 42.3861 45.2569 41.1798C45.2569 39.9734 44.2956 38.9955 43.1098 38.9955C41.924 38.9955 40.9627 39.9734 40.9627 41.1798C40.9627 42.3861 41.924 43.3641 43.1098 43.3641Z" fill="url(#paint13_linear)"/>
<path d="M38.4374 35.3325C39.6233 35.3325 40.5846 34.3545 40.5846 33.1482C40.5846 31.9418 39.6233 30.9639 38.4374 30.9639C37.2516 30.9639 36.2903 31.9418 36.2903 33.1482C36.2903 34.3545 37.2516 35.3325 38.4374 35.3325Z" fill="url(#paint14_linear)"/>
<path d="M25.8987 38.299C27.0846 38.299 28.0459 37.321 28.0459 36.1147C28.0459 34.9083 27.0846 33.9304 25.8987 33.9304C24.7129 33.9304 23.7516 34.9083 23.7516 36.1147C23.7516 37.321 24.7129 38.299 25.8987 38.299Z" fill="url(#paint15_linear)"/>
<path d="M35.3216 45.0138C36.5074 45.0138 37.4687 44.0359 37.4687 42.8296C37.4687 41.6232 36.5074 40.6453 35.3216 40.6453C34.1358 40.6453 33.1745 41.6232 33.1745 42.8296C33.1745 44.0359 34.1358 45.0138 35.3216 45.0138Z" fill="url(#paint16_linear)"/>
<path d="M55.7639 38.299C56.9497 38.299 57.911 37.321 57.911 36.1147C57.911 34.9083 56.9497 33.9304 55.7639 33.9304C54.578 33.9304 53.6167 34.9083 53.6167 36.1147C53.6167 37.321 54.578 38.299 55.7639 38.299Z" fill="url(#paint17_linear)"/>
<path d="M58.4908 24.2956C59.6766 24.2956 60.6379 23.3177 60.6379 22.1113C60.6379 20.905 59.6766 19.9271 58.4908 19.9271C57.305 19.9271 56.3437 20.905 56.3437 22.1113C56.3437 23.3177 57.305 24.2956 58.4908 24.2956Z" fill="url(#paint18_linear)"/>
<path d="M59.8529 32.1777C61.0387 32.1777 62 31.1997 62 29.9934C62 28.787 61.0387 27.8091 59.8529 27.8091C58.667 27.8091 57.7057 28.787 57.7057 29.9934C57.7057 31.1997 58.667 32.1777 59.8529 32.1777Z" fill="url(#paint19_linear)"/>
<path d="M47.6268 29.1531C48.8126 29.1531 49.7739 28.1752 49.7739 26.9688C49.7739 25.7625 48.8126 24.7846 47.6268 24.7846C46.441 24.7846 45.4797 25.7625 45.4797 26.9688C45.4797 28.1752 46.441 29.1531 47.6268 29.1531Z" fill="url(#paint20_linear)"/>
<path d="M39.138 21.5316C40.3238 21.5316 41.2852 20.5536 41.2852 19.3473C41.2852 18.141 40.3238 17.163 39.138 17.163C37.9522 17.163 36.9909 18.141 36.9909 19.3473C36.9909 20.5536 37.9522 21.5316 39.138 21.5316Z" fill="url(#paint21_linear)"/>
<path d="M22.9401 19.3995C24.126 19.3995 25.0873 18.4216 25.0873 17.2152C25.0873 16.0089 24.126 15.031 22.9401 15.031C21.7543 15.031 20.793 16.0089 20.793 17.2152C20.793 18.4216 21.7543 19.3995 22.9401 19.3995Z" fill="url(#paint22_linear)"/>
<path d="M31.3117 12.1493C32.4975 12.1493 33.4588 11.1714 33.4588 9.96502C33.4588 8.75868 32.4975 7.78075 31.3117 7.78075C30.1259 7.78075 29.1645 8.75868 29.1645 9.96502C29.1645 11.1714 30.1259 12.1493 31.3117 12.1493Z" fill="url(#paint23_linear)"/>
<path d="M37.8141 4.36854C38.9999 4.36854 39.9612 3.39061 39.9612 2.18427C39.9612 0.977931 38.9999 0 37.8141 0C36.6283 0 35.667 0.977931 35.667 2.18427C35.667 3.39061 36.6283 4.36854 37.8141 4.36854Z" fill="url(#paint24_linear)"/>
<path d="M25.7824 4.82687C26.9683 4.82687 27.9296 3.84894 27.9296 2.6426C27.9296 1.43626 26.9683 0.458327 25.7824 0.458327C24.5966 0.458327 23.6353 1.43626 23.6353 2.6426C23.6353 3.84894 24.5966 4.82687 25.7824 4.82687Z" fill="url(#paint25_linear)"/>
<path d="M10.4796 12.1493C11.6654 12.1493 12.6267 11.1714 12.6267 9.96502C12.6267 8.75868 11.6654 7.78075 10.4796 7.78075C9.29377 7.78075 8.33246 8.75868 8.33246 9.96502C8.33246 11.1714 9.29377 12.1493 10.4796 12.1493Z" fill="url(#paint26_linear)"/>
<path d="M4.79499 18.4588C5.98082 18.4588 6.94212 17.4808 6.94212 16.2745C6.94212 15.0682 5.98082 14.0902 4.79499 14.0902C3.60916 14.0902 2.64785 15.0682 2.64785 16.2745C2.64785 17.4808 3.60916 18.4588 4.79499 18.4588Z" fill="url(#paint27_linear)"/>
<path d="M14.3351 31.9124C15.5209 31.9124 16.4822 30.9345 16.4822 29.7281C16.4822 28.5218 15.5209 27.5438 14.3351 27.5438C13.1493 27.5438 12.1879 28.5218 12.1879 29.7281C12.1879 30.9345 13.1493 31.9124 14.3351 31.9124Z" fill="url(#paint28_linear)"/>
<path d="M5.88539 37.1413C7.07122 37.1413 8.03252 36.1634 8.03252 34.9571C8.03252 33.7507 7.07122 32.7728 5.88539 32.7728C4.69956 32.7728 3.73826 33.7507 3.73826 34.9571C3.73826 36.1634 4.69956 37.1413 5.88539 37.1413Z" fill="url(#paint29_linear)"/>
<path d="M2.14713 28.1837C3.33296 28.1837 4.29426 27.2057 4.29426 25.9994C4.29426 24.793 3.33296 23.8151 2.14713 23.8151C0.961303 23.8151 0 24.793 0 25.9994C0 27.2057 0.961303 28.1837 2.14713 28.1837Z" fill="url(#paint30_linear)"/>
<path d="M21.499 41.5118C22.6848 41.5118 23.6461 40.5339 23.6461 39.3275C23.6461 38.1212 22.6848 37.1432 21.499 37.1432C20.3132 37.1432 19.3519 38.1212 19.3519 39.3275C19.3519 40.5339 20.3132 41.5118 21.499 41.5118Z" fill="url(#paint31_linear)"/>
<path d="M51.0534 12.3856C52.2392 12.3856 53.2005 11.4077 53.2005 10.2013C53.2005 8.995 52.2392 8.01707 51.0534 8.01707C49.8675 8.01707 48.9062 8.995 48.9062 10.2013C48.9062 11.4077 49.8675 12.3856 51.0534 12.3856Z" fill="url(#paint32_linear)"/>
<path d="M29.5979 25.9984C30.7838 25.9984 31.7451 25.0205 31.7451 23.8142C31.7451 22.6078 30.7838 21.6299 29.5979 21.6299C28.4121 21.6299 27.4508 22.6078 27.4508 23.8142C27.4508 25.0205 28.4121 25.9984 29.5979 25.9984Z" fill="url(#paint33_linear)"/>
<defs>
<linearGradient id="paint0_linear" x1="65.4134" y1="34.2921" x2="1.52871" y2="2.51761" gradientUnits="userSpaceOnUse">
<stop offset="0.0851262" stop-color="#C5F46A"/>
<stop offset="0.434659" stop-color="#0B649C"/>
<stop offset="0.856776" stop-color="#4B00AD"/>
</linearGradient>
<linearGradient id="paint1_linear" x1="65.4134" y1="34.2921" x2="1.52871" y2="2.51761" gradientUnits="userSpaceOnUse">
<stop offset="0.0851262" stop-color="#C5F46A"/>
<stop offset="0.434659" stop-color="#0B649C"/>
<stop offset="0.856776" stop-color="#4B00AD"/>
</linearGradient>
<linearGradient id="paint2_linear" x1="65.4134" y1="34.2921" x2="1.52871" y2="2.51761" gradientUnits="userSpaceOnUse">
<stop offset="0.0851262" stop-color="#C5F46A"/>
<stop offset="0.434659" stop-color="#0B649C"/>
<stop offset="0.856776" stop-color="#4B00AD"/>
</linearGradient>
<linearGradient id="paint3_linear" x1="65.4134" y1="34.2921" x2="1.52871" y2="2.51761" gradientUnits="userSpaceOnUse">
<stop offset="0.0851262" stop-color="#C5F46A"/>
<stop offset="0.434659" stop-color="#0B649C"/>
<stop offset="0.856776" stop-color="#4B00AD"/>
</linearGradient>
<linearGradient id="paint4_linear" x1="65.4134" y1="34.2921" x2="1.52871" y2="2.51761" gradientUnits="userSpaceOnUse">
<stop offset="0.0851262" stop-color="#C5F46A"/>
<stop offset="0.434659" stop-color="#0B649C"/>
<stop offset="0.856776" stop-color="#4B00AD"/>
</linearGradient>
<linearGradient id="paint5_linear" x1="65.4134" y1="34.2921" x2="1.52871" y2="2.51761" gradientUnits="userSpaceOnUse">
<stop offset="0.0851262" stop-color="#C5F46A"/>
<stop offset="0.434659" stop-color="#0B649C"/>
<stop offset="0.856776" stop-color="#4B00AD"/>
</linearGradient>
<linearGradient id="paint6_linear" x1="65.4134" y1="34.2921" x2="1.52871" y2="2.51761" gradientUnits="userSpaceOnUse">
<stop offset="0.0851262" stop-color="#C5F46A"/>
<stop offset="0.434659" stop-color="#0B649C"/>
<stop offset="0.856776" stop-color="#4B00AD"/>
</linearGradient>
<linearGradient id="paint7_linear" x1="65.4134" y1="34.2921" x2="1.52871" y2="2.51761" gradientUnits="userSpaceOnUse">
<stop offset="0.0851262" stop-color="#C5F46A"/>
<stop offset="0.434659" stop-color="#0B649C"/>
<stop offset="0.856776" stop-color="#4B00AD"/>
</linearGradient>
<linearGradient id="paint8_linear" x1="65.4134" y1="34.2921" x2="1.52871" y2="2.51761" gradientUnits="userSpaceOnUse">
<stop offset="0.0851262" stop-color="#C5F46A"/>
<stop offset="0.434659" stop-color="#0B649C"/>
<stop offset="0.856776" stop-color="#4B00AD"/>
</linearGradient>
<linearGradient id="paint9_linear" x1="65.4134" y1="34.2921" x2="1.52871" y2="2.51761" gradientUnits="userSpaceOnUse">
<stop offset="0.0851262" stop-color="#C5F46A"/>
<stop offset="0.434659" stop-color="#0B649C"/>
<stop offset="0.856776" stop-color="#4B00AD"/>
</linearGradient>
<linearGradient id="paint10_linear" x1="65.4134" y1="34.2921" x2="1.52871" y2="2.51761" gradientUnits="userSpaceOnUse">
<stop offset="0.0851262" stop-color="#C5F46A"/>
<stop offset="0.434659" stop-color="#0B649C"/>
<stop offset="0.856776" stop-color="#4B00AD"/>
</linearGradient>
<linearGradient id="paint11_linear" x1="65.4134" y1="34.2921" x2="1.52871" y2="2.51761" gradientUnits="userSpaceOnUse">
<stop offset="0.0851262" stop-color="#C5F46A"/>
<stop offset="0.434659" stop-color="#0B649C"/>
<stop offset="0.856776" stop-color="#4B00AD"/>
</linearGradient>
<linearGradient id="paint12_linear" x1="65.4134" y1="34.2921" x2="1.52871" y2="2.51761" gradientUnits="userSpaceOnUse">
<stop offset="0.0851262" stop-color="#C5F46A"/>
<stop offset="0.434659" stop-color="#0B649C"/>
<stop offset="0.856776" stop-color="#4B00AD"/>
</linearGradient>
<linearGradient id="paint13_linear" x1="65.4134" y1="34.2921" x2="1.52871" y2="2.51761" gradientUnits="userSpaceOnUse">
<stop offset="0.0851262" stop-color="#C5F46A"/>
<stop offset="0.434659" stop-color="#0B649C"/>
<stop offset="0.856776" stop-color="#4B00AD"/>
</linearGradient>
<linearGradient id="paint14_linear" x1="65.4134" y1="34.2921" x2="1.52871" y2="2.51761" gradientUnits="userSpaceOnUse">
<stop offset="0.0851262" stop-color="#C5F46A"/>
<stop offset="0.434659" stop-color="#0B649C"/>
<stop offset="0.856776" stop-color="#4B00AD"/>
</linearGradient>
<linearGradient id="paint15_linear" x1="65.4134" y1="34.2921" x2="1.52871" y2="2.51761" gradientUnits="userSpaceOnUse">
<stop offset="0.0851262" stop-color="#C5F46A"/>
<stop offset="0.434659" stop-color="#0B649C"/>
<stop offset="0.856776" stop-color="#4B00AD"/>
</linearGradient>
<linearGradient id="paint16_linear" x1="65.4134" y1="34.2921" x2="1.52871" y2="2.51761" gradientUnits="userSpaceOnUse">
<stop offset="0.0851262" stop-color="#C5F46A"/>
<stop offset="0.434659" stop-color="#0B649C"/>
<stop offset="0.856776" stop-color="#4B00AD"/>
</linearGradient>
<linearGradient id="paint17_linear" x1="65.4134" y1="34.2921" x2="1.52871" y2="2.51761" gradientUnits="userSpaceOnUse">
<stop offset="0.0851262" stop-color="#C5F46A"/>
<stop offset="0.434659" stop-color="#0B649C"/>
<stop offset="0.856776" stop-color="#4B00AD"/>
</linearGradient>
<linearGradient id="paint18_linear" x1="65.4134" y1="34.2921" x2="1.52871" y2="2.51761" gradientUnits="userSpaceOnUse">
<stop offset="0.0851262" stop-color="#C5F46A"/>
<stop offset="0.434659" stop-color="#0B649C"/>
<stop offset="0.856776" stop-color="#4B00AD"/>
</linearGradient>
<linearGradient id="paint19_linear" x1="65.4134" y1="34.2921" x2="1.52871" y2="2.51761" gradientUnits="userSpaceOnUse">
<stop offset="0.0851262" stop-color="#C5F46A"/>
<stop offset="0.434659" stop-color="#0B649C"/>
<stop offset="0.856776" stop-color="#4B00AD"/>
</linearGradient>
<linearGradient id="paint20_linear" x1="65.4134" y1="34.2921" x2="1.52871" y2="2.51761" gradientUnits="userSpaceOnUse">
<stop offset="0.0851262" stop-color="#C5F46A"/>
<stop offset="0.434659" stop-color="#0B649C"/>
<stop offset="0.856776" stop-color="#4B00AD"/>
</linearGradient>
<linearGradient id="paint21_linear" x1="65.4134" y1="34.2921" x2="1.52871" y2="2.51761" gradientUnits="userSpaceOnUse">
<stop offset="0.0851262" stop-color="#C5F46A"/>
<stop offset="0.434659" stop-color="#0B649C"/>
<stop offset="0.856776" stop-color="#4B00AD"/>
</linearGradient>
<linearGradient id="paint22_linear" x1="65.4134" y1="34.2921" x2="1.52871" y2="2.51761" gradientUnits="userSpaceOnUse">
<stop offset="0.0851262" stop-color="#C5F46A"/>
<stop offset="0.434659" stop-color="#0B649C"/>
<stop offset="0.856776" stop-color="#4B00AD"/>
</linearGradient>
<linearGradient id="paint23_linear" x1="65.4134" y1="34.2921" x2="1.52871" y2="2.51761" gradientUnits="userSpaceOnUse">
<stop offset="0.0851262" stop-color="#C5F46A"/>
<stop offset="0.434659" stop-color="#0B649C"/>
<stop offset="0.856776" stop-color="#4B00AD"/>
</linearGradient>
<linearGradient id="paint24_linear" x1="65.4134" y1="34.2921" x2="1.52871" y2="2.51761" gradientUnits="userSpaceOnUse">
<stop offset="0.0851262" stop-color="#C5F46A"/>
<stop offset="0.434659" stop-color="#0B649C"/>
<stop offset="0.856776" stop-color="#4B00AD"/>
</linearGradient>
<linearGradient id="paint25_linear" x1="65.4134" y1="34.2921" x2="1.52871" y2="2.51761" gradientUnits="userSpaceOnUse">
<stop offset="0.0851262" stop-color="#C5F46A"/>
<stop offset="0.434659" stop-color="#0B649C"/>
<stop offset="0.856776" stop-color="#4B00AD"/>
</linearGradient>
<linearGradient id="paint26_linear" x1="65.4134" y1="34.2921" x2="1.52871" y2="2.51761" gradientUnits="userSpaceOnUse">
<stop offset="0.0851262" stop-color="#C5F46A"/>
<stop offset="0.434659" stop-color="#0B649C"/>
<stop offset="0.856776" stop-color="#4B00AD"/>
</linearGradient>
<linearGradient id="paint27_linear" x1="65.4134" y1="34.2921" x2="1.52871" y2="2.51761" gradientUnits="userSpaceOnUse">
<stop offset="0.0851262" stop-color="#C5F46A"/>
<stop offset="0.434659" stop-color="#0B649C"/>
<stop offset="0.856776" stop-color="#4B00AD"/>
</linearGradient>
<linearGradient id="paint28_linear" x1="65.4134" y1="34.2921" x2="1.52871" y2="2.51761" gradientUnits="userSpaceOnUse">
<stop offset="0.0851262" stop-color="#C5F46A"/>
<stop offset="0.434659" stop-color="#0B649C"/>
<stop offset="0.856776" stop-color="#4B00AD"/>
</linearGradient>
<linearGradient id="paint29_linear" x1="65.4134" y1="34.2921" x2="1.52871" y2="2.51761" gradientUnits="userSpaceOnUse">
<stop offset="0.0851262" stop-color="#C5F46A"/>
<stop offset="0.434659" stop-color="#0B649C"/>
<stop offset="0.856776" stop-color="#4B00AD"/>
</linearGradient>
<linearGradient id="paint30_linear" x1="65.4134" y1="34.2921" x2="1.52871" y2="2.51761" gradientUnits="userSpaceOnUse">
<stop offset="0.0851262" stop-color="#C5F46A"/>
<stop offset="0.434659" stop-color="#0B649C"/>
<stop offset="0.856776" stop-color="#4B00AD"/>
</linearGradient>
<linearGradient id="paint31_linear" x1="65.4134" y1="34.2921" x2="1.52871" y2="2.51761" gradientUnits="userSpaceOnUse">
<stop offset="0.0851262" stop-color="#C5F46A"/>
<stop offset="0.434659" stop-color="#0B649C"/>
<stop offset="0.856776" stop-color="#4B00AD"/>
</linearGradient>
<linearGradient id="paint32_linear" x1="65.4134" y1="34.2921" x2="1.52871" y2="2.51761" gradientUnits="userSpaceOnUse">
<stop offset="0.0851262" stop-color="#C5F46A"/>
<stop offset="0.434659" stop-color="#0B649C"/>
<stop offset="0.856776" stop-color="#4B00AD"/>
</linearGradient>
<linearGradient id="paint33_linear" x1="65.4134" y1="34.2921" x2="1.52871" y2="2.51761" gradientUnits="userSpaceOnUse">
<stop offset="0.0851262" stop-color="#C5F46A"/>
<stop offset="0.434659" stop-color="#0B649C"/>
<stop offset="0.856776" stop-color="#4B00AD"/>
</linearGradient>
</defs>
</svg>
