<svg width="57" height="50" viewBox="0 0 57 50" fill="none" xmlns="http://www.w3.org/2000/svg">
<path fill-rule="evenodd" clip-rule="evenodd" d="M42.9033 5.9228L51.3947 19.5198L49.4603 20.7278L40.9689 7.13085L42.9033 5.9228Z" fill="url(#paint0_linear)"/>
<path fill-rule="evenodd" clip-rule="evenodd" d="M18.7899 6.54729L26.8943 19.5235L24.96 20.7316L16.8556 7.75541L18.7899 6.54729Z" fill="url(#paint1_linear)"/>
<path fill-rule="evenodd" clip-rule="evenodd" d="M38.501 10.9709L30.1998 24.0055L28.2761 22.7804L36.5774 9.74584L38.501 10.9709Z" fill="url(#paint2_linear)"/>
<path fill-rule="evenodd" clip-rule="evenodd" d="M38.501 10.9709L30.1998 24.0055L28.2761 22.7804L36.5774 9.74584L38.501 10.9709Z" fill="url(#paint3_linear)"/>
<path fill-rule="evenodd" clip-rule="evenodd" d="M26.8769 31.5212L18.5756 44.5557L16.652 43.3306L24.9533 30.2961L26.8769 31.5212Z" fill="url(#paint4_linear)"/>
<path fill-rule="evenodd" clip-rule="evenodd" d="M30.8661 26.6947L39.1674 39.7293L37.2438 40.9544L28.9425 27.9198L30.8661 26.6947Z" fill="url(#paint5_linear)"/>
<path fill-rule="evenodd" clip-rule="evenodd" d="M34.5062 24.3227H50.2221V26.6034H34.5062V24.3227Z" fill="url(#paint6_linear)"/>
<path fill-rule="evenodd" clip-rule="evenodd" d="M10.2584 24.3227H25.9743V26.6034H10.2584V24.3227Z" fill="url(#paint7_linear)"/>
<path fill-rule="evenodd" clip-rule="evenodd" d="M18.9186 44.9896H34.6345V47.2702H18.9186V44.9896Z" fill="url(#paint8_linear)"/>
<path fill-rule="evenodd" clip-rule="evenodd" d="M51.4199 31.4535L43.0866 44.4805L41.1655 43.2515L49.4987 30.2245L51.4199 31.4535Z" fill="url(#paint9_linear)"/>
<path fill-rule="evenodd" clip-rule="evenodd" d="M18.9186 2.64367H34.6345V4.9243H18.9186V2.64367Z" fill="url(#paint10_linear)"/>
<path fill-rule="evenodd" clip-rule="evenodd" d="M40.6569 2.28064C39.5696 2.28064 38.7182 3.14402 38.7182 4.17235C38.7182 5.20068 39.5696 6.06407 40.6569 6.06407C41.7441 6.06407 42.5955 5.20068 42.5955 4.17235C42.5955 3.14402 41.7441 2.28064 40.6569 2.28064ZM36.4376 4.17235C36.4376 1.85159 38.3432 0 40.6569 0C42.9705 0 44.8761 1.85159 44.8761 4.17235C44.8761 6.49311 42.9705 8.3447 40.6569 8.3447C38.3432 8.3447 36.4376 6.49311 36.4376 4.17235Z" fill="url(#paint11_linear)"/>
<path fill-rule="evenodd" clip-rule="evenodd" d="M40.6569 43.8604C39.5696 43.8604 38.7182 44.7238 38.7182 45.7521C38.7182 46.7804 39.5696 47.6438 40.6569 47.6438C41.7441 47.6438 42.5955 46.7804 42.5955 45.7521C42.5955 44.7238 41.7441 43.8604 40.6569 43.8604ZM36.4376 45.7521C36.4376 43.4313 38.3432 41.5797 40.6569 41.5797C42.9705 41.5797 44.8761 43.4313 44.8761 45.7521C44.8761 48.0728 42.9705 49.9244 40.6569 49.9244C38.3432 49.9244 36.4376 48.0728 36.4376 45.7521Z" fill="url(#paint12_linear)"/>
<path fill-rule="evenodd" clip-rule="evenodd" d="M13.8162 10.6993L5.48288 23.7263L3.5617 22.4973L11.895 9.47031L13.8162 10.6993Z" fill="url(#paint13_linear)"/>
<path fill-rule="evenodd" clip-rule="evenodd" d="M5.81612 27.2228L14.1493 40.2506L12.2281 41.4795L3.8949 28.4517L5.81612 27.2228Z" fill="url(#paint14_linear)"/>
<path fill-rule="evenodd" clip-rule="evenodd" d="M16.2763 2.28064C15.1891 2.28064 14.3377 3.14402 14.3377 4.17235C14.3377 5.20068 15.1891 6.06407 16.2763 6.06407C17.3635 6.06407 18.2149 5.20068 18.2149 4.17235C18.2149 3.14402 17.3635 2.28064 16.2763 2.28064ZM12.0571 4.17235C12.0571 1.85159 13.9627 0 16.2763 0C18.59 0 20.4956 1.85159 20.4956 4.17235C20.4956 6.49311 18.59 8.3447 16.2763 8.3447C13.9627 8.3447 12.0571 6.49311 12.0571 4.17235Z" fill="url(#paint15_linear)"/>
<path fill-rule="evenodd" clip-rule="evenodd" d="M16.2763 43.8604C15.1891 43.8604 14.3377 44.7238 14.3377 45.7521C14.3377 46.7804 15.1891 47.6438 16.2763 47.6438C17.3635 47.6438 18.2149 46.7804 18.2149 45.7521C18.2149 44.7238 17.3635 43.8604 16.2763 43.8604ZM12.0571 45.7521C12.0571 43.4313 13.9627 41.5797 16.2763 41.5797C18.59 41.5797 20.4956 43.4313 20.4956 45.7521C20.4956 48.0728 18.59 49.9244 16.2763 49.9244C13.9627 49.9244 12.0571 48.0728 12.0571 45.7521Z" fill="url(#paint16_linear)"/>
<path d="M28.6381 29.8467C31.0958 29.8467 33.0881 27.885 33.0881 25.465C33.0881 23.045 31.0958 21.0832 28.6381 21.0832C26.1804 21.0832 24.1881 23.045 24.1881 25.465C24.1881 27.885 26.1804 29.8467 28.6381 29.8467Z" fill="url(#paint17_linear)"/>
<path fill-rule="evenodd" clip-rule="evenodd" d="M4.21925 23.5724C3.13202 23.5724 2.28064 24.4358 2.28064 25.4641C2.28064 26.4924 3.13202 27.3558 4.21925 27.3558C5.30648 27.3558 6.15786 26.4924 6.15786 25.4641C6.15786 24.4358 5.30648 23.5724 4.21925 23.5724ZM0 25.4641C0 23.1434 1.90559 21.2918 4.21925 21.2918C6.53291 21.2918 8.43849 23.1434 8.43849 25.4641C8.43849 27.7849 6.53291 29.6365 4.21925 29.6365C1.90559 29.6365 0 27.7849 0 25.4641Z" fill="url(#paint18_linear)"/>
<path fill-rule="evenodd" clip-rule="evenodd" d="M52.7808 23.5724C51.6935 23.5724 50.8421 24.4358 50.8421 25.4641C50.8421 26.4924 51.6935 27.3558 52.7808 27.3558C53.868 27.3558 54.7194 26.4924 54.7194 25.4641C54.7194 24.4358 53.868 23.5724 52.7808 23.5724ZM48.5615 25.4641C48.5615 23.1434 50.4671 21.2918 52.7808 21.2918C55.0944 21.2918 57 23.1434 57 25.4641C57 27.7849 55.0944 29.6365 52.7808 29.6365C50.4671 29.6365 48.5615 27.7849 48.5615 25.4641Z" fill="url(#paint19_linear)"/>
<defs>
<linearGradient id="paint0_linear" x1="60.1381" y1="34.7046" x2="-0.703181" y2="7.21472" gradientUnits="userSpaceOnUse">
<stop offset="0.0851262" stop-color="#C5F46A"/>
<stop offset="0.434659" stop-color="#0B649C"/>
<stop offset="0.856776" stop-color="#4B00AD"/>
</linearGradient>
<linearGradient id="paint1_linear" x1="60.1381" y1="34.7046" x2="-0.703181" y2="7.21472" gradientUnits="userSpaceOnUse">
<stop offset="0.0851262" stop-color="#C5F46A"/>
<stop offset="0.434659" stop-color="#0B649C"/>
<stop offset="0.856776" stop-color="#4B00AD"/>
</linearGradient>
<linearGradient id="paint2_linear" x1="60.1381" y1="34.7046" x2="-0.703181" y2="7.21472" gradientUnits="userSpaceOnUse">
<stop offset="0.0851262" stop-color="#C5F46A"/>
<stop offset="0.434659" stop-color="#0B649C"/>
<stop offset="0.856776" stop-color="#4B00AD"/>
</linearGradient>
<linearGradient id="paint3_linear" x1="60.1381" y1="34.7046" x2="-0.703181" y2="7.21472" gradientUnits="userSpaceOnUse">
<stop offset="0.0851262" stop-color="#C5F46A"/>
<stop offset="0.434659" stop-color="#0B649C"/>
<stop offset="0.856776" stop-color="#4B00AD"/>
</linearGradient>
<linearGradient id="paint4_linear" x1="60.1381" y1="34.7046" x2="-0.703181" y2="7.21472" gradientUnits="userSpaceOnUse">
<stop offset="0.0851262" stop-color="#C5F46A"/>
<stop offset="0.434659" stop-color="#0B649C"/>
<stop offset="0.856776" stop-color="#4B00AD"/>
</linearGradient>
<linearGradient id="paint5_linear" x1="60.1381" y1="34.7046" x2="-0.703181" y2="7.21472" gradientUnits="userSpaceOnUse">
<stop offset="0.0851262" stop-color="#C5F46A"/>
<stop offset="0.434659" stop-color="#0B649C"/>
<stop offset="0.856776" stop-color="#4B00AD"/>
</linearGradient>
<linearGradient id="paint6_linear" x1="60.1381" y1="34.7046" x2="-0.703181" y2="7.21472" gradientUnits="userSpaceOnUse">
<stop offset="0.0851262" stop-color="#C5F46A"/>
<stop offset="0.434659" stop-color="#0B649C"/>
<stop offset="0.856776" stop-color="#4B00AD"/>
</linearGradient>
<linearGradient id="paint7_linear" x1="60.1381" y1="34.7046" x2="-0.703181" y2="7.21472" gradientUnits="userSpaceOnUse">
<stop offset="0.0851262" stop-color="#C5F46A"/>
<stop offset="0.434659" stop-color="#0B649C"/>
<stop offset="0.856776" stop-color="#4B00AD"/>
</linearGradient>
<linearGradient id="paint8_linear" x1="60.1381" y1="34.7046" x2="-0.703181" y2="7.21472" gradientUnits="userSpaceOnUse">
<stop offset="0.0851262" stop-color="#C5F46A"/>
<stop offset="0.434659" stop-color="#0B649C"/>
<stop offset="0.856776" stop-color="#4B00AD"/>
</linearGradient>
<linearGradient id="paint9_linear" x1="60.1381" y1="34.7046" x2="-0.703181" y2="7.21472" gradientUnits="userSpaceOnUse">
<stop offset="0.0851262" stop-color="#C5F46A"/>
<stop offset="0.434659" stop-color="#0B649C"/>
<stop offset="0.856776" stop-color="#4B00AD"/>
</linearGradient>
<linearGradient id="paint10_linear" x1="60.1381" y1="34.7046" x2="-0.703181" y2="7.21472" gradientUnits="userSpaceOnUse">
<stop offset="0.0851262" stop-color="#C5F46A"/>
<stop offset="0.434659" stop-color="#0B649C"/>
<stop offset="0.856776" stop-color="#4B00AD"/>
</linearGradient>
<linearGradient id="paint11_linear" x1="60.1381" y1="34.7046" x2="-0.703181" y2="7.21472" gradientUnits="userSpaceOnUse">
<stop offset="0.0851262" stop-color="#C5F46A"/>
<stop offset="0.434659" stop-color="#0B649C"/>
<stop offset="0.856776" stop-color="#4B00AD"/>
</linearGradient>
<linearGradient id="paint12_linear" x1="60.1381" y1="34.7046" x2="-0.703181" y2="7.21472" gradientUnits="userSpaceOnUse">
<stop offset="0.0851262" stop-color="#C5F46A"/>
<stop offset="0.434659" stop-color="#0B649C"/>
<stop offset="0.856776" stop-color="#4B00AD"/>
</linearGradient>
<linearGradient id="paint13_linear" x1="60.1381" y1="34.7046" x2="-0.703181" y2="7.21472" gradientUnits="userSpaceOnUse">
<stop offset="0.0851262" stop-color="#C5F46A"/>
<stop offset="0.434659" stop-color="#0B649C"/>
<stop offset="0.856776" stop-color="#4B00AD"/>
</linearGradient>
<linearGradient id="paint14_linear" x1="60.1381" y1="34.7046" x2="-0.703181" y2="7.21472" gradientUnits="userSpaceOnUse">
<stop offset="0.0851262" stop-color="#C5F46A"/>
<stop offset="0.434659" stop-color="#0B649C"/>
<stop offset="0.856776" stop-color="#4B00AD"/>
</linearGradient>
<linearGradient id="paint15_linear" x1="60.1381" y1="34.7046" x2="-0.703181" y2="7.21472" gradientUnits="userSpaceOnUse">
<stop offset="0.0851262" stop-color="#C5F46A"/>
<stop offset="0.434659" stop-color="#0B649C"/>
<stop offset="0.856776" stop-color="#4B00AD"/>
</linearGradient>
<linearGradient id="paint16_linear" x1="60.1381" y1="34.7046" x2="-0.703181" y2="7.21472" gradientUnits="userSpaceOnUse">
<stop offset="0.0851262" stop-color="#C5F46A"/>
<stop offset="0.434659" stop-color="#0B649C"/>
<stop offset="0.856776" stop-color="#4B00AD"/>
</linearGradient>
<linearGradient id="paint17_linear" x1="60.1381" y1="34.7046" x2="-0.703181" y2="7.21472" gradientUnits="userSpaceOnUse">
<stop offset="0.0851262" stop-color="#C5F46A"/>
<stop offset="0.434659" stop-color="#0B649C"/>
<stop offset="0.856776" stop-color="#4B00AD"/>
</linearGradient>
<linearGradient id="paint18_linear" x1="60.1381" y1="34.7046" x2="-0.703181" y2="7.21472" gradientUnits="userSpaceOnUse">
<stop offset="0.0851262" stop-color="#C5F46A"/>
<stop offset="0.434659" stop-color="#0B649C"/>
<stop offset="0.856776" stop-color="#4B00AD"/>
</linearGradient>
<linearGradient id="paint19_linear" x1="60.1381" y1="34.7046" x2="-0.703181" y2="7.21472" gradientUnits="userSpaceOnUse">
<stop offset="0.0851262" stop-color="#C5F46A"/>
<stop offset="0.434659" stop-color="#0B649C"/>
<stop offset="0.856776" stop-color="#4B00AD"/>
</linearGradient>
</defs>
</svg>
