<?xml version="1.0" encoding="UTF-8" standalone="no"?><!DOCTYPE svg PUBLIC "-//W3C//DTD SVG 1.1//EN" "http://www.w3.org/Graphics/SVG/1.1/DTD/svg11.dtd"><svg width="100%" height="100%" viewBox="0 0 109 109" version="1.1" xmlns="http://www.w3.org/2000/svg" xmlns:xlink="http://www.w3.org/1999/xlink" xml:space="preserve" xmlns:serif="http://www.serif.com/" style="fill-rule:evenodd;clip-rule:evenodd;stroke-linejoin:round;stroke-miterlimit:1.41421;"><rect id="facebook" x="0" y="0" width="108.017" height="108.017" style="fill:none;"/><path d="M89.842,4.954l-71.667,0c-7.302,0 -13.221,5.919 -13.221,13.22l0,71.668c0,7.302 5.919,13.221 13.221,13.221l35.346,0l0.06,-35.059l-9.108,0c-1.184,0 -2.145,-0.957 -2.149,-2.141l-0.044,-11.301c-0.005,-1.19 0.959,-2.157 2.149,-2.157l9.092,0l0,-10.92c0,-12.672 7.739,-19.572 19.043,-19.572l9.276,0c1.187,0 2.15,0.962 2.15,2.149l0,9.529c0,1.187 -0.962,2.149 -2.148,2.15l-5.693,0.002c-6.148,0 -7.338,2.922 -7.338,7.209l0,9.453l13.508,0c1.288,0 2.286,1.124 2.135,2.402l-1.34,11.301c-0.128,1.081 -1.045,1.896 -2.134,1.896l-12.109,0l-0.06,35.059l21.031,0c7.302,0 13.221,-5.919 13.221,-13.22l0,-71.669c-0.001,-7.301 -5.919,-13.22 -13.221,-13.22Z" style="fill:#fff;fill-rule:nonzero;"/></svg>