<?xml version="1.0" encoding="UTF-8" standalone="no"?><!DOCTYPE svg PUBLIC "-//W3C//DTD SVG 1.1//EN" "http://www.w3.org/Graphics/SVG/1.1/DTD/svg11.dtd"><svg width="100%" height="100%" viewBox="0 0 109 109" version="1.1" xmlns="http://www.w3.org/2000/svg" xmlns:xlink="http://www.w3.org/1999/xlink" xml:space="preserve" xmlns:serif="http://www.serif.com/" style="fill-rule:evenodd;clip-rule:evenodd;stroke-linejoin:round;stroke-miterlimit:1.41421;"><rect id="whatsapp" x="0" y="0" width="108.017" height="108.017" style="fill:none;"/><path id="WhatsApp" d="M103.063,52.745c0,26.395 -21.561,47.791 -48.163,47.791c-8.445,0 -16.379,-2.158 -23.281,-5.946l-26.665,8.473l8.693,-25.641c-4.385,-7.202 -6.911,-15.648 -6.911,-24.677c0,-26.395 21.563,-47.791 48.164,-47.791c26.604,0 48.163,21.396 48.163,47.791Zm-48.163,-40.18c-22.33,0 -40.493,18.025 -40.493,40.18c0,8.792 2.866,16.934 7.714,23.557l-5.059,14.922l15.561,-4.945c6.393,4.198 14.052,6.646 22.278,6.646c22.327,0 40.493,-18.023 40.493,-40.178c0,-22.155 -18.165,-40.182 -40.494,-40.182Zm24.321,51.187c-0.297,-0.488 -1.083,-0.782 -2.263,-1.367c-1.181,-0.586 -6.987,-3.421 -8.066,-3.81c-1.083,-0.39 -1.872,-0.587 -2.658,0.585c-0.786,1.173 -3.049,3.81 -3.739,4.592c-0.689,0.784 -1.377,0.882 -2.559,0.295c-1.179,-0.585 -4.982,-1.824 -9.492,-5.813c-3.509,-3.105 -5.879,-6.938 -6.568,-8.112c-0.688,-1.172 -0.072,-1.805 0.518,-2.388c0.532,-0.526 1.181,-1.368 1.771,-2.052c0.592,-0.684 0.788,-1.172 1.18,-1.954c0.395,-0.782 0.198,-1.465 -0.098,-2.053c-0.295,-0.585 -2.658,-6.35 -3.641,-8.696c-0.984,-2.343 -1.966,-1.953 -2.656,-1.953c-0.688,0 -1.476,-0.098 -2.263,-0.098c-0.787,0 -2.067,0.293 -3.149,1.465c-1.082,1.173 -4.131,4.007 -4.131,9.77c0,5.765 4.229,11.334 4.821,12.115c0.59,0.78 8.165,12.994 20.167,17.684c12.003,4.689 12.003,3.125 14.168,2.928c2.162,-0.195 6.983,-2.833 7.971,-5.567c0.981,-2.738 0.981,-5.083 0.687,-5.571Z" style="fill:#fff;fill-rule:nonzero;"/></svg>